<?xml version="1.0" encoding="utf-8"?>
<!-- Generator: Adobe Illustrator 25.3.1, SVG Export Plug-In . SVG Version: 6.00 Build 0)  -->
<svg version="1.1" id="Capa_1" xmlns="http://www.w3.org/2000/svg" xmlns:xlink="http://www.w3.org/1999/xlink" x="0px" y="0px"
	 viewBox="0 0 44 44" style="enable-background:new 0 0 44 44;" xml:space="preserve">
<style type="text/css">
	.st0{fill:#FFFFFF;}
</style>
<path class="st0" d="M43.3,22c0,11.8-9.5,21.3-21.3,21.3S0.7,33.8,0.7,22S10.2,0.7,22,0.7S43.3,10.2,43.3,22z M19.5,33.3l15.8-15.8
	c0.5-0.5,0.5-1.4,0-1.9l-1.9-1.9c-0.5-0.5-1.4-0.5-1.9,0L18.6,26.5l-6-6c-0.5-0.5-1.4-0.5-1.9,0l-1.9,1.9c-0.5,0.5-0.5,1.4,0,1.9
	l8.9,8.9C18.1,33.8,19,33.8,19.5,33.3z"/>
</svg>
